<?xml version="1.0" standalone="no"?><!DOCTYPE svg PUBLIC "-//W3C//DTD SVG 1.1//EN" "http://www.w3.org/Graphics/SVG/1.1/DTD/svg11.dtd"><svg t="1609317567581" class="icon" viewBox="0 0 1024 1024" version="1.1" xmlns="http://www.w3.org/2000/svg" p-id="6614" width="64" height="64" xmlns:xlink="http://www.w3.org/1999/xlink"><defs><style type="text/css"></style></defs><path d="M608.256 159.232l124.416-71.168c19.456-11.264 26.624-36.352 15.36-55.808-11.264-19.456-36.352-26.624-55.808-15.36L467.456 145.408c-9.216 5.632-16.384 14.336-18.944 24.576s-1.536 21.504 4.096 31.232l128.512 224.256c7.68 13.312 21.504 20.48 35.328 20.48 6.656 0 13.824-1.536 20.48-5.632 19.456-11.264 26.624-36.352 15.36-55.808l-86.016-150.016c168.96 25.6 298.496 171.52 298.496 347.136 0 193.536-157.696 351.232-351.232 351.232s-351.232-157.696-351.232-351.232c0-22.528-18.432-40.96-40.96-40.96s-40.96 18.432-40.96 40.96c0 238.592 194.048 433.152 433.152 433.152 238.592 0 433.152-194.048 433.152-433.152-0.512-206.336-145.408-379.392-338.432-422.4z" fill="#ffffff" p-id="6615"></path></svg>